<svg xmlns="http://www.w3.org/2000/svg" version="1.1" xmlns:xlink="http://www.w3.org/1999/xlink" xmlns:svgjs="http://svgjs.dev/svgjs" width="1500" height="1687" viewBox="0 0 1500 1687"><g transform="matrix(1,0,0,1,0.00011015625000254659,0)"><svg viewBox="0 0 320 360" data-background-color="#ffffff" preserveAspectRatio="xMidYMid meet" height="1687" width="1500" xmlns="http://www.w3.org/2000/svg" xmlns:xlink="http://www.w3.org/1999/xlink"><g id="tight-bounds" transform="matrix(1,0,0,1,0.000023499999997511622,0)"><svg viewBox="0 0 320 360" height="360" width="320"><g><svg></svg></g><g><svg viewBox="0 0 320 360" height="360" width="320"><g><path transform="translate(-74.99272,-51.79039) scale(4.65793,4.65793)" d="M20.6 59.9l0.8 1-0.4-1.3c-0.1-0.6-0.8 0.1-0.4 0.3M21.5 59.3c0.3 0.5 0.6 1 0.6 1.5 0 0.7 0.6 1 1.1 1.2-0.7-0.8-1.1-3-1.7-2.7M59.9 16.9c1.7 0 3.3-0.2 5.1 0.2 4.4 1.1 8.1 3.3 10.6 6.4l7 11.2c0.3 2.8 0.9 5.9 0.8 9.3 0.7 0 0.6-1 1.4-1.2-0.8 2-1.2 4.5-1.4 7.4-0.5-1.6 0-4 0.1-5.3-0.7 1.1-1.1 0.3-1.1-0.2 0.1-0.8-0.3-0.7-0.6-1-1.1-1-1.8-2.1-2.6-3.8 0.5-1.3 0.6-3.2-1-4.2-0.5-0.3-1.1-0.8-1.4-1.6-0.4-1.1-1.1-2.4-0.9-4.1 0.1-0.5-1.5 1.1-2.4 0.4-3.9-2.7-7.8-5.8-12.5-8.4-2.5 0-4.3-0.9-5.2-2-0.8-1-0.2-2.3 1-2.4 0.7 0 1.5-0.2 2.1 0.2 0.1-0.4 0.5-0.9 1-0.9M50 14.6l0.2 0.1c1 0.2 1.5 1.6 2.6 1.1 0 0.7 0.1 1.4-0.1 1.9-0.3 0.8-1.2 0.8-1.9 0.8-6.7-0.4-10.6 2.4-14.7 4.8-1.1 0.7-2.3 1.2-3.2 2.1-4.3 4-9 7.7-10.1 15.1l-0.9 8.2c-0.1 0.9-1.1 1.8-0.9 2.9l0.7 4.9c-0.7-0.7-1.1 0.2-0.9 0.6 0.1 0.3 0.5 1.3 1.1 0.4 0.8 1.5 1.6 4.4 2.7 5.7 3.4 4 7.8 7.6 11.4 11.2 0.9-0.2 1.6-0.2 1.8-0.8 0.3 0.6-0.3 1.2-0.8 1.3 1.6 1 3.4 1.9 5.8 2.1 3.1 0.2 6 0.7 8.7 1.4 1.4-0.4 2.8-0.6 4.3-0.7 0.5 0 0.8-0.8 1.4-1l0.1-1c0.6 0.9 0.5-0.3 0.1-0.9 0.7 0.6 0.9 1.1 1.2 1.5 0-0.3 0.8-1.4 0.8-0.1l0.2-1.3c0.3-0.2 0.4 1.1 0.7 0.2 0.3-0.9 0.9-0.2 1.5-0.5-0.2 0.4-0.1 1.2 0.6 0.7l0.8-0.7c0.5 1.2 1.3 0.7 1.7 0.5 4.4-2.8 8.8-6.1 13-9.4l-0.1 1.3 0.5-1.6c0.5 0.5 0.9 0.1 1.1-0.2 0.6-1 1.4-2 2.7-2.9-1.6 4.3-3.5 7.7-5.9 10.5l-1 1.2c0 0.7-0.2 1.6-1 1.7-0.4 0.1-1.2-0.2-1.8 0.4-0.3 0.4 0.7 1.2-0.1 0.6-0.7-0.5-1.4 0-2.2 0.2-0.6 0.2 0.4 0.8 0.6 1.2 0.2 0.4 0.4 0.8 0.3 1.3l-1.1-1.2c-1.3 0.7-2.1 2-3.2 3-0.5 0.4-0.3 1.1-0.3 1.7-0.7 0-1.5-0.2-1.9 0.2-0.3 0.4-0.2 1-0.2 1.6-1-0.1-1.1-1.6-2-1.3-0.9 0.2-1.9 0.3-2.7 0.8 0.6 1.2-1 0.5-0.8 0.7-1.5-0.9-2.8-1.6-4.4-1-3.4-1.1-7.6-0.6-10.7-0.2 0-0.5 0.1-1-0.1-1.1-0.2 0.5-0.8 0.3-0.7 0.3-1.9-1.3-3.8-2.1-5.8-3.2-1.8 0.2-3.5-0.7-4-1.2-1.4-1.3-3-0.6-4.3-0.9-2.8-0.7-3.8-3.6-4.1-5.6-0.2-1-1-1.4-1.3-1.3-1.3-4.2-3.3-8-4.9-11.9-0.4-1-0.3-2-0.3-3.1 0.5 0.2 1 0.1 0.9-0.6-0.5-3.3-1.7-5.8-3-8.2 0.7-3.4 0.8-7.4 2.4-10.4 1.4-2.7 4-4.1 5.8-6.4 0.6-0.8 0.6-1.9 1.2-2.6 2-2 4-4.1 6.2-5.9 1-0.8 2.2 0 3.7-0.3 0.5-1.8 2.5-3.4 4.4-2.9 0.8 0.2 2.4-1.9 2.9-2.1 0.8-0.3 0.4 0.8 0.4 1.5 1.9-1.5 4.5-2.3 6.9-3.2" fill="#7f8cd9" fill-rule="nonzero" stroke="none" stroke-width="1" stroke-linecap="butt" stroke-linejoin="miter" stroke-miterlimit="10" stroke-dasharray="" stroke-dashoffset="0" font-family="none" font-weight="none" font-size="none" text-anchor="none" style="mix-blend-mode: normal" data-fill-palette-color="tertiary"></path></g><g transform="matrix(1,0,0,1,90.09523141087115,90)"><svg viewBox="0 0 139.8095371782577 180" height="180" width="139.8095371782577"><g><svg viewBox="0 0 139.8095371782577 180" height="180" width="139.8095371782577"><g><svg viewBox="0 0 192 247.19343685356648" height="180" width="139.8095371782577"><g transform="matrix(1,0,0,1,0,140.5343865144019)"><svg viewBox="0 0 192 106.6590503391646" height="106.6590503391646" width="192"><g id="textblocktransform"><svg viewBox="0 0 192 106.6590503391646" height="106.6590503391646" width="192" id="textblock"><g><svg viewBox="0 0 192 106.6590503391646" height="106.6590503391646" width="192"><g transform="matrix(1,0,0,1,0,0)"><svg width="192" viewBox="3.81 -37.5 68.37 37.99" height="106.6590503391646" data-palette-color="#7f8cd9"><path d="M8.33-37.5L8.33 0 3.81 0 3.81-37.5 8.33-37.5ZM26.51 0.49L26.51 0.49Q21.14 0.49 17.77-3.04 14.4-6.57 14.4-12.48L14.4-12.48 14.4-13.31Q14.4-17.24 15.9-20.32 17.4-23.41 20.1-25.16 22.8-26.9 25.95-26.9L25.95-26.9Q31.1-26.9 33.96-23.51 36.81-20.12 36.81-13.79L36.81-13.79 36.81-11.91 18.92-11.91Q19.02-8.01 21.2-5.6 23.39-3.2 26.76-3.2L26.76-3.2Q29.15-3.2 30.81-4.17 32.47-5.15 33.71-6.76L33.71-6.76 36.47-4.61Q33.15 0.49 26.51 0.49ZM25.95-23.19L25.95-23.19Q23.22-23.19 21.36-21.2 19.5-19.21 19.06-15.63L19.06-15.63 32.3-15.63 32.3-15.97Q32.1-19.41 30.44-21.3 28.78-23.19 25.95-23.19ZM45.11-26.42L50.9-16.77 56.76-26.42 62.03-26.42 53.39-13.35 62.3 0 57.08 0 50.97-9.89 44.87 0 39.62 0 48.53-13.35 39.89-26.42 45.11-26.42ZM71.72-26.42L71.72 0 67.2 0 67.2-26.42 71.72-26.42ZM66.84-33.42L66.84-33.42Q66.84-34.52 67.51-35.28 68.18-36.04 69.5-36.04 70.82-36.04 71.5-35.28 72.18-34.52 72.18-33.42 72.18-32.32 71.5-31.59 70.82-30.86 69.5-30.86 68.18-30.86 67.51-31.59 66.84-32.32 66.84-33.42Z" opacity="1" transform="matrix(1,0,0,1,0,0)" fill="#7f8cd9" class="wordmark-text-0" data-fill-palette-color="primary" id="text-0"></path></svg></g></svg></g></svg></g></svg></g><g transform="matrix(1,0,0,1,36.672,0)"><svg viewBox="0 0 118.656 124.97027125270964" height="124.97027125270964" width="118.656"><g><svg xmlns="http://www.w3.org/2000/svg" xmlns:xlink="http://www.w3.org/1999/xlink" version="1.1" viewBox="2.428 0 91.14948608029863 96" x="0" y="0" height="124.97027125270964" width="118.656" class="icon-icon-0" data-fill-palette-color="accent" id="icon-0"><path d="M89.692 75.508c-0.12 0-0.252-0.016-0.38-0.04-1.084-0.212-1.796-1.256-1.584-2.344 2.252-11.648 1.908-21.296 1.696-27.068l-0.048-1.3c0-22.504-18.608-40.752-41.476-40.752-12.64 0-24.928 6.116-32.876 16.352-0.676 0.872-1.928 1.036-2.808 0.352-0.872-0.676-1.032-1.932-0.352-2.804 8.7-11.212 22.172-17.904 36.036-17.904 25.076 0 45.476 20.044 45.476 44.684l0.04 1.16c0.22 6.008 0.58 15.944-1.76 28.048-0.188 0.952-1.024 1.616-1.964 1.616z" fill="#dae5f4" data-fill-palette-color="accent"></path><path d="M4.428 54.116c-1.104 0-2-0.9-2-2v-7.168c0-7.096 1.796-14.632 4.928-20.68 0.504-0.98 1.708-1.364 2.696-0.852 0.98 0.504 1.364 1.72 0.856 2.692-2.844 5.496-4.48 12.364-4.48 18.84v7.168c0 1.104-0.896 2-2 2z" fill="#dae5f4" data-fill-palette-color="accent"></path><path d="M6.28 61.868c-1.104 0-2-0.896-2-2 0-1.1 0.896-2 2-2 2.364 0 4.148-1.904 4.148-4.42v-8.496c0-19.72 17.024-36.384 37.18-36.384 5.016 0 10.216 1.008 14.628 2.84 1.024 0.42 1.508 1.592 1.084 2.612s-1.592 1.504-2.612 1.084c-3.94-1.632-8.588-2.532-13.096-2.532-17.984 0-33.18 14.832-33.18 32.384v8.496c-0.004 4.72-3.584 8.416-8.152 8.416z" fill="#dae5f4" data-fill-palette-color="accent"></path><path d="M77.42 87.572c-0.236 0-0.468-0.04-0.696-0.132-1.04-0.38-1.568-1.532-1.184-2.568 6.104-16.448 5.568-31.332 5.304-38.488l-0.02-0.504c-0.024-0.46-0.04-0.86-0.04-1.2 0-9.828-4.532-18.996-12.444-25.148-0.876-0.68-1.032-1.932-0.352-2.804 0.672-0.872 1.936-1.032 2.804-0.352 8.896 6.916 13.992 17.228 13.992 28.304 0 0.292 0.016 0.636 0.032 1.028l0.02 0.428c0.268 7.512 0.832 22.932-5.544 40.124-0.296 0.812-1.056 1.312-1.872 1.312z" fill="#dae5f4" data-fill-palette-color="accent"></path><path d="M65.78 92.592c-0.3 0-0.608-0.072-0.904-0.22-0.98-0.5-1.376-1.704-0.876-2.68 9.16-18.04 8.54-34.916 8.248-43.032-0.04-0.98-0.06-1.52-0.06-1.972 0-12.992-10.896-23.556-24.288-23.556-3.696 0-7.28 0.844-10.644 2.508-0.996 0.488-2.188 0.08-2.68-0.908-0.492-0.992-0.084-2.188 0.908-2.68 3.92-1.94 8.1-2.92 12.416-2.92 15.596 0 28.288 12.36 28.288 27.556 0 0.416 0.02 0.904 0.044 1.468 0.296 8.148 0.964 26.392-8.664 45.34-0.348 0.7-1.056 1.096-1.788 1.096z" fill="#dae5f4" data-fill-palette-color="accent"></path><path d="M21.612 46.948c-1.104 0-2-0.896-2-2 0-7.744 3.452-15.248 9.476-20.588 0.82-0.732 2.088-0.66 2.824 0.168s0.66 2.092-0.168 2.824c-5.164 4.584-8.128 10.996-8.128 17.596-0.004 1.104-0.9 2-2.004 2z" fill="#dae5f4" data-fill-palette-color="accent"></path><path d="M6.576 70.792c-0.868 0-1.668-0.568-1.92-1.432-0.308-1.068 0.3-2.172 1.36-2.484l3.764-1.096c7.624-2.224 9.832-4.988 9.832-12.328 0-1.096 0.896-2 2-2s2 0.904 2 2c0 9.084-3.444 13.468-12.712 16.168l-3.764 1.092c-0.188 0.056-0.376 0.08-0.56 0.08z" fill="#dae5f4" data-fill-palette-color="accent"></path><path d="M53.804 96c-0.384 0-0.772-0.104-1.112-0.336-0.916-0.616-1.16-1.86-0.544-2.776 7.92-11.784 11.736-25.232 11.632-41.104 0-1.096 0.888-2.004 1.992-2.008 0.928-0.076 2 0.884 2.008 1.988 0.1 16.476-4.04 31.06-12.312 43.36-0.388 0.572-1.024 0.876-1.664 0.876z" fill="#dae5f4" data-fill-palette-color="accent"></path><path d="M11.868 77.916c-0.868 0-1.668-0.572-1.92-1.436-0.308-1.064 0.3-2.172 1.36-2.484 10.88-3.164 15.116-8.924 15.116-20.548v-8.496c0-10.26 9.62-19.26 20.584-19.26 10.86 0 19.7 8.52 19.7 18.996 0 1.104-0.896 2-2 2s-2-0.896-2-2c0-8.268-7.044-14.996-15.7-14.996-8.68 0-16.584 7.276-16.584 15.26v8.496c0 13.244-5.552 20.756-18 24.392-0.18 0.052-0.372 0.076-0.556 0.076z" fill="#dae5f4" data-fill-palette-color="accent"></path><path d="M43.28 95.816c-0.444 0-0.892-0.148-1.264-0.448-0.856-0.696-0.984-1.956-0.284-2.812 5.336-6.54 9.132-13.976 11.28-22.116 0.284-1.072 1.396-1.708 2.44-1.42 1.072 0.28 1.708 1.376 1.424 2.44-2.292 8.7-6.348 16.648-12.048 23.628-0.392 0.484-0.968 0.728-1.548 0.728z" fill="#dae5f4" data-fill-palette-color="accent"></path><path d="M19.068 85.124c-0.816 0-1.584-0.504-1.88-1.312-0.38-1.048 0.156-2.192 1.196-2.572 16.568-6.032 20.044-18.448 20.044-27.804v-8.496c0-5.996 4.52-10.692 10.288-10.692 5.892 0 10.696 4.68 10.696 10.428 0 0.728 0.064 1.652 0.128 2.752 0.14 2.176 0.332 5.168 0.2 8.6-0.044 1.1-1.016 1.964-2.08 1.92-1.1-0.048-1.964-0.976-1.92-2.084 0.128-3.232-0.052-5.98-0.188-8.188-0.084-1.2-0.14-2.212-0.14-3.004 0-3.544-3.008-6.428-6.7-6.428-3.528 0-6.288 2.94-6.288 6.692v8.496c0 10.632-3.932 24.736-22.676 31.568-0.22 0.088-0.452 0.124-0.68 0.124z" fill="#dae5f4" data-fill-palette-color="accent"></path><path d="M43.968 77.392c-0.312 0-0.624-0.072-0.916-0.224-0.984-0.508-1.364-1.716-0.856-2.696 2.888-5.568 4.232-11.708 4.232-19.328v-7.028c0-1.104 0.896-2 2-2s2 0.896 2 2v7.028c0 8.284-1.492 15.016-4.68 21.172-0.356 0.684-1.056 1.076-1.78 1.076z" fill="#dae5f4" data-fill-palette-color="accent"></path><path d="M29.368 91.956c-0.68 0-1.344-0.348-1.72-0.972-0.568-0.952-0.256-2.176 0.692-2.744 3.42-2.04 6.344-4.452 8.692-7.164 0.724-0.836 1.992-0.924 2.82-0.204 0.836 0.724 0.924 1.984 0.204 2.82-2.628 3.032-5.88 5.724-9.668 7.984-0.32 0.192-0.672 0.28-1.02 0.28z" fill="#dae5f4" data-fill-palette-color="accent"></path></svg></g></svg></g><g></g></svg></g></svg></g></svg></g></svg></g><defs></defs></svg><rect width="320" height="360" fill="none" stroke="none" visibility="hidden"></rect></g></svg></g></svg>