<svg xmlns="http://www.w3.org/2000/svg" version="1.1" xmlns:xlink="http://www.w3.org/1999/xlink" xmlns:svgjs="http://svgjs.dev/svgjs" width="1500" height="1500" viewBox="0 0 1500 1500"><rect width="1500" height="1500" fill="#ffffff"></rect><g transform="matrix(0.6666666666666666,0,0,0.6666666666666666,249.39393939393938,438.58569500674764)"><svg viewBox="0 0 396 247" data-background-color="#ffffff" preserveAspectRatio="xMidYMid meet" height="935" width="1500" xmlns="http://www.w3.org/2000/svg" xmlns:xlink="http://www.w3.org/1999/xlink"><g id="tight-bounds" transform="matrix(1,0,0,1,0.2400000000000091,-0.09999999999999432)"><svg viewBox="0 0 395.52 247.2" height="247.2" width="395.52"><g><svg></svg></g><g><svg viewBox="0 0 395.52 247.2" height="247.2" width="395.52"><g transform="matrix(1,0,0,1,75.54432,77.98094695507487)"><svg viewBox="0 0 244.43135999999998 91.23810608985026" height="91.23810608985026" width="244.43135999999998"><g><svg viewBox="0 0 244.43135999999998 91.23810608985026" height="91.23810608985026" width="244.43135999999998"><g><svg viewBox="0 0 244.43135999999998 91.23810608985026" height="91.23810608985026" width="244.43135999999998"><g><svg viewBox="0 0 244.43135999999998 91.23810608985026" height="91.23810608985026" width="244.43135999999998"><g id="textblocktransform"><svg viewBox="0 0 244.43135999999998 91.23810608985026" height="91.23810608985026" width="244.43135999999998" id="textblock"><g><svg viewBox="0 0 244.43135999999998 91.23810608985026" height="91.23810608985026" width="244.43135999999998"><g transform="matrix(1,0,0,1,0,0)"><svg width="244.43135999999998" viewBox="5.25 -33.2 90.14 33.650000000000006" height="91.23810608985026" data-palette-color="#7f8cd9"><path d="M11.4-30.75L5.45-30.7 5.4-33.15 14.05-33.2 14.05-2.5 20.15-2.5 20.15 0 5.25 0 5.25-2.5 11.4-2.5 11.4-30.75ZM28.35-11.85Q28.35-17.6 30.72-20.83 33.1-24.05 37.65-24.05 42.2-24.05 44.42-21.05 46.65-18.05 46.65-13.05L46.65-13.05 46.5-10.55 31.2-10.55Q31.45-6.8 33.2-4.48 34.95-2.15 38.02-2.15 41.1-2.15 45.25-3.6L45.25-3.6 46-1.1Q41.95 0.45 38.4 0.45L38.4 0.45Q33.5 0.45 30.92-2.83 28.35-6.1 28.35-11.85ZM37.85-21.5L37.85-21.5Q31.55-21.5 31.2-13.05L31.2-13.05 43.8-13.05Q43.8-21.5 37.85-21.5ZM60.8-12.05L53-23.75 56.45-23.75 62.5-13.95 68.5-23.75 71.84-23.75 64.34-12.05 72.3 0 68.9 0 62.5-10.15 56.15 0 52.75 0 60.8-12.05ZM86.94-21.25L81.14-21.25 81.14-23.75 89.59-23.75 89.59-2.5 95.39-2.5 95.39 0 80.74 0 80.74-2.5 86.94-2.5 86.94-21.25ZM88.04-28.55Q87.14-28.55 86.52-29.18 85.89-29.8 85.89-30.78 85.89-31.75 86.52-32.33 87.14-32.9 88.04-32.9 88.94-32.9 89.52-32.35 90.09-31.8 90.09-30.8 90.09-29.8 89.52-29.18 88.94-28.55 88.04-28.55Z" opacity="1" transform="matrix(1,0,0,1,0,0)" fill="#7f8cd9" class="wordmark-text-0" data-fill-palette-color="primary" id="text-0"></path></svg></g></svg></g></svg></g></svg></g><g></g></svg></g></svg></g></svg></g><g><path d="M95.65 56.442A122.216 122.216 0 0 1 299.87 56.442L291.642 56.442A113.988 113.988 0 0 0 103.878 56.442L95.65 56.442M95.65 190.758A122.216 122.216 0 0 0 299.87 190.758L291.642 190.758A113.988 113.988 0 0 1 103.878 190.758L95.65 190.758" fill="#7f8cd9" stroke="transparent" data-fill-palette-color="tertiary"></path></g></svg></g><defs></defs></svg><rect width="395.52" height="247.2" fill="none" stroke="none" visibility="hidden"></rect></g></svg></g></svg>